<?xml version="1.0" encoding="UTF-8" standalone="no"?>
<!-- Created with Inkscape (http://www.inkscape.org/) -->

<svg
   xmlns:dc="http://purl.org/dc/elements/1.1/"
   xmlns:cc="http://creativecommons.org/ns#"
   xmlns:rdf="http://www.w3.org/1999/02/22-rdf-syntax-ns#"
   xmlns:svg="http://www.w3.org/2000/svg"
   xmlns="http://www.w3.org/2000/svg"
   xmlns:sodipodi="http://sodipodi.sourceforge.net/DTD/sodipodi-0.dtd"
   xmlns:inkscape="http://www.inkscape.org/namespaces/inkscape"
   width="58.347874mm"
   height="12.050807mm"
   viewBox="0 0 58.347874 12.050807"
   version="1.1"
   id="svg6247"
   inkscape:version="0.92.3 (2405546, 2018-03-11)"
   sodipodi:docname="nav-brand.svg">
  <defs
     id="defs6241" />
  <sodipodi:namedview
     id="base"
     pagecolor="#ffffff"
     bordercolor="#666666"
     borderopacity="1.0"
     inkscape:pageopacity="0.0"
     inkscape:pageshadow="2"
     inkscape:zoom="0.35"
     inkscape:cx="333.12054"
     inkscape:cy="-160.08341"
     inkscape:document-units="mm"
     inkscape:current-layer="layer1"
     showgrid="false"
     inkscape:window-width="1366"
     inkscape:window-height="720"
     inkscape:window-x="0"
     inkscape:window-y="24"
     inkscape:window-maximized="1" />
  <metadata
     id="metadata6244">
    <rdf:RDF>
      <cc:Work
         rdf:about="">
        <dc:format>image/svg+xml</dc:format>
        <dc:type
           rdf:resource="http://purl.org/dc/dcmitype/StillImage" />
        <dc:title></dc:title>
      </cc:Work>
    </rdf:RDF>
  </metadata>
  <g
     inkscape:label="Layer 1"
     inkscape:groupmode="layer"
     id="layer1"
     transform="translate(122.156,-94.427123)">
    <path
       style="clip-rule:evenodd;fill:#ffffff;fill-opacity:1;fill-rule:evenodd;stroke-width:0.00722908;image-rendering:optimizeQuality;shape-rendering:geometricPrecision;text-rendering:geometricPrecision"
       d="m -114.36392,94.427123 -3.31797,0.02851 c -0.52049,0.0074 -0.96163,0.643281 -0.99776,1.12763 -0.0153,0.173496 0,0.368027 0,0.606581 0,0.440974 -0.006,0.95432 0,1.395286 0,0.32531 -0.065,0.347561 -0.21698,0.521058 l -0.23123,0.231231 c -0.12289,0.122897 -0.66513,0.701487 -0.78079,0.766536 l 1.22266,1.135555 1.27968,-1.186235 c 0.33976,-0.318077 0.34615,-0.36146 0.33892,-0.896407 -0.006,-0.578322 -0.0428,-1.366784 -0.0428,-1.366784 -0.0215,-0.527723 0.35453,-0.809294 0.65092,-0.809294 l 2.10323,-0.02218 z m 3.5001,0 v 0.273989 c -0.0288,0.130131 -0.0147,0.332641 -0.008,0.665176 v 0.592325 l 2.10323,0.02218 c 0.33976,-0.01441 0.6726,0.339411 0.65092,0.809294 0,0 -0.0371,0.788462 -0.0443,1.366784 -0.008,0.534947 -0.008,0.57833 0.33259,0.896407 1.04822,0.961472 1.94597,1.800162 2.98696,2.790582 l 0.4688,0.47037 c 0.008,0.006 0.0148,0.0208 0.0222,0.0269 l 0.37535,0.37534 c 0.0723,0.0794 0.13752,0.20273 0.26765,0.20273 0.2455,0 0.65783,-0.81434 0.65884,-1.12605 0,0 0,-0.002 0,-0.002 -6.1e-4,-0.4182 -0.22506,-0.64882 -0.52105,-0.93759 l -0.0507,-0.0443 c -0.55663,-0.50602 -1.13461,-1.12738 -1.7057,-1.705702 -0.28916,-0.296394 -0.5645,-0.571016 -0.85365,-0.845727 l -0.15045,-0.15204 c -0.15181,-0.173497 -0.21698,-0.195756 -0.21698,-0.521058 v -1.395286 c 0,-0.238529 0.0144,-0.433085 0,-0.606581 -0.0362,-0.484349 -0.47727,-1.120405 -0.99777,-1.12763 z m 18.422251,0 c -0.921455,0 -1.766371,0.392776 -2.351877,1.026278 -0.595107,0.633502 -0.95025,1.479221 -0.95025,2.429479 0,0.950257 0.355143,1.803979 0.95025,2.4279 0.585506,0.62389 1.430422,1.02627 2.351877,1.02627 0.883068,0 1.72697,-0.40238 2.293282,-1.02627 0.595108,-0.623921 0.969257,-1.477643 0.969257,-2.4279 0,-0.950258 -0.374149,-1.795977 -0.969257,-2.429479 -0.566312,-0.633502 -1.410214,-1.026278 -2.293282,-1.026278 z m 19.418435,0 c -0.921463,0 -1.766371,0.392776 -2.351877,1.026278 -0.595115,0.633502 -0.950258,1.479221 -0.950258,2.429479 0,0.950257 0.355143,1.803979 0.950258,2.4279 0.585506,0.62389 1.430414,1.02627 2.351877,1.02627 0.88306,0 1.726962,-0.40238 2.293275,-1.02627 0.595107,-0.623921 0.969256,-1.477643 0.969256,-2.4279 0,-0.950258 -0.374149,-1.795977 -0.969256,-2.429479 -0.566313,-0.633502 -1.410215,-1.026278 -2.293275,-1.026278 z m -26.781318,0.191636 c -0.287958,0 -0.527388,0.229853 -0.527388,0.52739 v 5.663511 c 0,0.28809 0.23944,0.52739 0.527388,0.52739 0.297561,0 0.538483,-0.23946 0.538483,-0.52739 v -2.082635 h 1.179892 c 1.142226,0 2.06364,-0.921601 2.06364,-2.044634 0,-1.142226 -0.921414,-2.063632 -2.06364,-2.063632 h -1.708872 z m 18.27496,0 c -0.297553,0 -0.52739,0.229853 -0.52739,0.52739 v 5.663511 c 0,0.28809 0.229853,0.52739 0.52739,0.52739 h 1.13239 c 1.852511,0 3.351226,-1.506535 3.351226,-3.368647 0,-1.842918 -1.498715,-3.349644 -3.351226,-3.349644 z m 13.183183,0.04751 c -0.297554,0 -0.52739,0.249038 -0.52739,0.52739 v 5.616001 c 0,0.28809 0.229828,0.52739 0.52739,0.52739 0.297562,0 0.527398,-0.23946 0.527398,-0.52739 v -1.363609 l 0.999349,-1.016774 2.073136,2.716143 c 0.105577,0.12473 0.248795,0.19163 0.392767,0.19163 0.124803,0 0.239778,-0.0387 0.335763,-0.12511 0.230339,-0.18236 0.269545,-0.51728 0.0776,-0.73804 l -2.131738,-2.793741 2.112731,-2.101647 c 0.201569,-0.211162 0.201569,-0.547541 0,-0.74911 -0.211162,-0.211162 -0.537948,-0.211162 -0.749118,0 l -3.110491,3.119994 v -2.755737 c 0,-0.278368 -0.229853,-0.52739 -0.527397,-0.52739 z m -19.294897,0.02534 c -0.13198,-0.02039 -0.27279,0.0087 -0.392768,0.09028 -0.14398,0.105585 -0.220236,0.278685 -0.210643,0.441867 v 0.0095 5.576404 c 0,0.28809 0.229853,0.52739 0.52739,0.52739 0.278344,0 0.517887,-0.23946 0.517887,-0.52739 v -3.98314 l 3.072493,4.26189 c 0.0095,0.0184 0.02832,0.0377 0.04751,0.057 0.09599,0.11523 0.239203,0.19163 0.392776,0.19163 0.287961,0 0.528971,-0.23946 0.528971,-0.52739 v -5.576404 c 0,-0.278368 -0.241027,-0.519468 -0.528971,-0.519468 -0.287969,0 -0.517895,0.241116 -0.517895,0.519468 v 3.954644 l -3.099407,-4.29039 c -0.08158,-0.115186 -0.205364,-0.185489 -0.337343,-0.205891 z m -4.800363,0.82989 c 0.575913,0 1.112515,0.249079 1.515654,0.68102 0.393538,0.422332 0.652509,1.027665 0.652509,1.680361 0,0.652704 -0.258963,1.25652 -0.652509,1.669275 -0.403139,0.431917 -0.939741,0.690525 -1.515654,0.690525 -0.614301,0 -1.152111,-0.25873 -1.55525,-0.690525 -0.403138,-0.412755 -0.652501,-1.016571 -0.652509,-1.669275 0,-0.652696 0.249379,-1.258029 0.652509,-1.680361 0.403139,-0.431941 0.940949,-0.68102 1.55525,-0.68102 z m 19.418435,0 c 0.575914,0 1.112507,0.249079 1.515654,0.68102 0.393538,0.422332 0.652502,1.027665 0.65251,1.680361 0,0.652704 -0.258972,1.25652 -0.65251,1.669275 -0.403147,0.431917 -0.93974,0.690525 -1.515654,0.690525 -0.614309,0 -1.152111,-0.25873 -1.555249,-0.690525 -0.403139,-0.412755 -0.65251,-1.016571 -0.65251,-1.669275 0,-0.652696 0.249371,-1.258029 0.65251,-1.680361 0.403138,-0.431941 0.94094,-0.68102 1.555249,-0.68102 z m -26.242835,0.163125 h 1.179892 c 0.556711,0 0.989755,0.441056 0.999356,0.997767 -0.0095,0.537519 -0.442645,0.978761 -0.999356,0.978761 h -1.179892 z m 18.27496,0 h 0.593907 c 1.267005,0 2.285361,1.026375 2.285361,2.283779 0,1.27659 -1.018356,2.294777 -2.285361,2.304367 h -0.593907 z m -40.506151,2.293283 c -0.24549,0 -0.65782,0.820662 -0.65884,1.132382 0,0 0,0.0016 0,0.0016 6.2e-4,0.418197 0.22343,0.649672 0.51948,0.931241 l 0.0507,0.0507 c 0.55665,0.50602 1.13548,1.12739 1.69937,1.70571 0.289,0.29636 0.57082,0.5719 0.85997,0.83939 l 0.15204,0.15838 c 0.15171,0.17346 0.21698,0.19578 0.21698,0.52105 -0.006,0.44095 0,0.95433 0,1.39529 0,0.23844 -0.0153,0.43398 0,0.60024 0.0362,0.48436 0.47725,1.12764 0.99776,1.12764 l 3.31798,0.0364 v -0.28191 c 0.0217,-0.1229 0.0147,-0.32631 0.008,-0.65884 v -0.59233 l -2.10323,-0.0269 c -0.33982,0.0215 -0.67259,-0.33308 -0.65092,-0.80296 0,0 0.0354,-0.79569 0.0428,-1.36678 0.006,-0.53496 8.3e-4,-0.57832 -0.33892,-0.89641 -1.04101,-0.96144 -1.93807,-1.79929 -2.97904,-2.796912 l -0.47038,-0.470369 c -0.006,-0.0074 -0.0145,-0.01482 -0.0206,-0.02218 l -0.37535,-0.375349 c -0.0723,-0.08676 -0.14476,-0.209054 -0.26766,-0.209054 z m 14.97758,2.687633 -1.27967,1.18465 c -0.34699,0.31809 -0.34774,0.36145 -0.3405,0.89641 0.008,0.57108 0.0443,1.36677 0.0443,1.36677 0.0218,0.52773 -0.35452,0.80297 -0.65092,0.80297 l -2.10322,0.0269 0.008,1.53308 3.31796,-0.0364 c 0.5205,0 0.96163,-0.64332 0.99777,-1.12764 0.0144,-0.16642 0,-0.36169 0,-0.60024 0,-0.44099 0.008,-0.9543 0,-1.3953 0,-0.32529 0.0636,-0.34597 0.21539,-0.51946 l 0.23282,-0.23282 c 0.12289,-0.12289 0.66353,-0.69989 0.7792,-0.76495 z m 14.353581,2.46432 c -0.453867,0 -0.817297,0.1521 -1.089616,0.45612 -0.270883,0.3026 -0.407031,0.70785 -0.407031,1.21792 0,0.51007 0.136148,0.91691 0.407031,1.21948 0.272319,0.30258 0.635749,0.45454 1.089616,0.45454 0.452432,0 0.813997,-0.15196 1.084881,-0.45454 0.270875,-0.30402 0.405441,-0.71086 0.405441,-1.21948 0,-0.51007 -0.134566,-0.91532 -0.405441,-1.21792 -0.270884,-0.30402 -0.632449,-0.45612 -1.084881,-0.45612 z m 4.151032,0 c -0.504304,0 -0.899366,0.14808 -1.184651,0.44346 -0.28385,0.29395 -0.42603,0.70482 -0.42603,1.23216 0,0.52591 0.14218,0.9352 0.42603,1.23058 0.285285,0.29393 0.680347,0.44186 1.184651,0.44186 0.230542,0 0.44777,-0.0298 0.65092,-0.0903 0.203159,-0.0621 0.3889,-0.15447 0.557483,-0.27399 v -1.3842 h -1.145057 v 0.35793 h 0.712694 v 0.86631 0.002 c -0.09654,0.0562 -0.205219,0.0977 -0.326259,0.12511 -0.121024,0.026 -0.259183,0.038 -0.413356,0.038 -0.394794,0 -0.691229,-0.11055 -0.890074,-0.331 -0.197393,-0.22046 -0.296159,-0.5468 -0.296159,-0.98193 0,-0.43659 0.09877,-0.76625 0.296159,-0.98669 0.198837,-0.22045 0.495271,-0.331 0.890074,-0.331 0.200272,0 0.391762,0.0353 0.573319,0.10453 0.181557,0.0691 0.35335,0.17194 0.514716,0.30884 v -0.46405 c -0.159931,-0.10093 -0.335608,-0.17774 -0.525801,-0.22964 -0.188757,-0.0519 -0.388299,-0.0776 -0.598659,-0.0776 z m -12.316873,0.0586 v 3.22611 h 0.43712 v -1.29709 h 0.547979 c 0.361646,0 0.634362,-0.0811 0.818797,-0.2439 0.185871,-0.16282 0.278741,-0.40377 0.278741,-0.72219 0,-0.31553 -0.09287,-0.55461 -0.278741,-0.71745 -0.184427,-0.16427 -0.457143,-0.24548 -0.818797,-0.24548 z m 3.224531,0 v 3.22611 h 0.437114 v -1.36361 h 0.475129 c 0.172897,0 0.309182,0.0356 0.408604,0.10611 0.10085,0.0706 0.203783,0.21466 0.310414,0.43078 l 0.413364,0.82672 h 0.468788 l -0.443448,-0.88215 c -0.08935,-0.18149 -0.178329,-0.32382 -0.267656,-0.42761 -0.0879,-0.1038 -0.178743,-0.17105 -0.272408,-0.20272 0.180105,-0.0519 0.318117,-0.14471 0.411783,-0.27875 0.09508,-0.13405 0.142537,-0.30212 0.142537,-0.50522 0,-0.31115 -0.09085,-0.54417 -0.272408,-0.69843 -0.181549,-0.15426 -0.457857,-0.23123 -0.82672,-0.23123 z m 11.653273,0 v 3.22611 h 0.437115 v -1.36361 h 0.475129 c 0.172896,0 0.309189,0.0356 0.408612,0.10611 0.100849,0.0706 0.205364,0.21466 0.311995,0.43078 l 0.411775,0.82672 h 0.468795 l -0.441866,-0.88215 c -0.08935,-0.18149 -0.179911,-0.32382 -0.269246,-0.42761 -0.08789,-0.1038 -0.178743,-0.17105 -0.2724,-0.20272 0.180106,-0.0519 0.318118,-0.14471 0.411775,-0.27875 0.09509,-0.13405 0.142537,-0.30212 0.142537,-0.50522 0,-0.31115 -0.09085,-0.54417 -0.272408,-0.69843 -0.181549,-0.15426 -0.456276,-0.23123 -0.82513,-0.23123 z m 4.282476,0 -1.232161,3.22611 h 0.459284 l 0.294586,-0.82672 h 1.453881 l 0.294577,0.82672 h 0.454541 l -1.23058,-3.22611 z m 2.746234,0 v 3.22611 h 0.424449 v -2.83334 l 0.831471,2.21409 h 0.438696 l 0.831471,-2.21409 v 2.83334 h 0.42603 v -3.22611 h -0.649339 l -0.828301,2.19509 -0.823557,-2.19509 z m 4.374333,0 v 3.22611 h 0.424449 v -2.83334 l 0.831471,2.21409 h 0.438696 l 0.833061,-2.21409 v 2.83334 h 0.42444 v -3.22611 h -0.649339 l -0.828301,2.19509 -0.823557,-2.19509 z m 4.374333,0 v 3.22611 h 2.079469 v -0.36743 h -1.642354 v -1.16881 h 1.536242 v -0.36743 h -1.536242 v -0.95501 h 1.604348 v -0.36743 z m 3.354396,0 v 3.22611 h 0.437115 v -1.36361 h 0.475129 c 0.172904,0 0.309189,0.0356 0.408604,0.10611 0.100857,0.0706 0.205372,0.21466 0.312003,0.43078 l 0.411775,0.82672 h 0.468795 l -0.441866,-0.88215 c -0.08935,-0.18149 -0.179911,-0.32382 -0.269237,-0.42761 -0.0879,-0.1038 -0.178752,-0.17105 -0.272409,-0.20272 0.180106,-0.0519 0.318118,-0.14471 0.411775,-0.27875 0.09509,-0.13405 0.142537,-0.30212 0.142537,-0.50522 0,-0.31115 -0.09085,-0.54417 -0.272408,-0.69843 -0.181549,-0.15426 -0.456276,-0.23123 -0.82513,-0.23123 z m -25.843735,0.29616 c 0.316991,0 0.567854,0.11689 0.752289,0.35318 0.185871,0.23632 0.278741,0.55834 0.278741,0.9661 0,0.40632 -0.09287,0.72821 -0.278741,0.9645 -0.184435,0.23632 -0.435298,0.35476 -0.752289,0.35476 -0.316982,0 -0.56971,-0.11844 -0.757032,-0.35476 -0.185863,-0.23629 -0.278741,-0.55818 -0.278741,-0.9645 0,-0.40776 0.09288,-0.72978 0.278741,-0.9661 0.187314,-0.23629 0.44005,-0.35318 0.757032,-0.35318 z m -7.728721,0.0618 h 0.547979 c 0.203158,0 0.361013,0.0532 0.471958,0.15838 0.110945,0.10518 0.166296,0.25354 0.166296,0.44662 0,0.19446 -0.05535,0.34456 -0.166296,0.44979 -0.110961,0.10522 -0.268808,0.15837 -0.471958,0.15837 h -0.547979 z m 3.224525,0 h 0.547979 c 0.210375,0 0.370095,0.0491 0.47671,0.1457 0.108066,0.0951 0.161544,0.23566 0.161544,0.42445 0,0.18865 -0.05348,0.33272 -0.161544,0.43078 -0.106623,0.0966 -0.266343,0.14571 -0.47671,0.14571 h -0.547979 z m 11.653274,0 h 0.549568 c 0.210351,0 0.368489,0.0491 0.47512,0.1457 0.108067,0.0951 0.161544,0.23566 0.161544,0.42445 0,0.18865 -0.05348,0.33272 -0.161544,0.43078 -0.106623,0.0966 -0.264761,0.14571 -0.47512,0.14571 h -0.549568 z m 19.131772,0 h 0.549568 c 0.210351,0 0.368489,0.0491 0.47512,0.1457 0.108067,0.0951 0.161545,0.23566 0.161545,0.42445 0,0.18865 -0.05348,0.33272 -0.161545,0.43078 -0.106623,0.0966 -0.264761,0.14571 -0.47512,0.14571 h -0.549568 z m -15.040932,0.0713 0.595496,1.60593 h -1.187822 z"
       id="path1052"
       inkscape:connector-curvature="0" />
  </g>
</svg>
